<svg width="32" height="25" viewBox="0 0 32 25" fill="none" xmlns="http://www.w3.org/2000/svg">
<path fill-rule="evenodd" clip-rule="evenodd" d="M18.4397 15.074C18.7314 15.0215 19.0273 14.9951 19.3237 14.9952C19.947 14.9952 20.5434 15.1105 21.0928 15.3209L23.2787 12.2126L23.3622 12.2599C22.5518 11.3544 22.1045 10.1814 22.1063 8.96618C22.1063 6.23413 24.3211 4.01932 27.0531 4.01932C29.7852 4.01932 32 6.23413 32 8.96618C32 11.6982 29.7852 13.913 27.0531 13.913C26.4855 13.913 25.9401 13.8174 25.4323 13.6414L23.2201 16.8937C23.9023 17.7632 24.2723 18.8368 24.2705 19.942C24.2705 22.6741 22.0557 24.8889 19.3237 24.8889C16.5916 24.8889 14.3768 22.6741 14.3768 19.942C14.3768 18.4322 15.0533 17.0803 16.1197 16.1728L12.9098 9.79138C12.5787 9.85964 12.2414 9.89393 11.9034 9.89372C11.4777 9.89403 11.0537 9.83948 10.6419 9.7314L8.36699 13.7399C9.30783 14.6404 9.89372 15.9088 9.89372 17.314C9.89372 20.0461 7.67892 22.2609 4.94686 22.2609C2.2148 22.2609 0 20.0461 0 17.314C0 14.582 2.2148 12.3672 4.94686 12.3672C5.35729 12.3672 5.75598 12.4171 6.1372 12.5112L8.42651 8.46562C7.51892 7.56916 6.95652 6.32379 6.95652 4.94686C6.95652 2.2148 9.17132 0 11.9034 0C14.6354 0 16.8502 2.2148 16.8502 4.94686C16.8502 6.4252 16.2017 7.75204 15.1739 8.65855L18.4397 15.074ZM27.0531 11.4396C28.4192 11.4396 29.5266 10.3323 29.5266 8.96618C29.5266 7.60008 28.4192 6.49275 27.0531 6.49275C25.687 6.49275 24.5797 7.60008 24.5797 8.96618C24.5797 10.3323 25.687 11.4396 27.0531 11.4396ZM4.94686 19.7874C6.31297 19.7874 7.42029 18.6801 7.42029 17.314C7.42029 15.9479 6.31297 14.8406 4.94686 14.8406C3.58075 14.8406 2.47343 15.9479 2.47343 17.314C2.47343 18.6801 3.58075 19.7874 4.94686 19.7874ZM11.9034 7.42029C13.2695 7.42029 14.3768 6.31297 14.3768 4.94686C14.3768 3.58075 13.2695 2.47343 11.9034 2.47343C10.5373 2.47343 9.42995 3.58075 9.42995 4.94686C9.42995 6.31297 10.5373 7.42029 11.9034 7.42029ZM19.3237 22.4155C20.6898 22.4155 21.7971 21.3081 21.7971 19.942C21.7971 18.5759 20.6898 17.4686 19.3237 17.4686C17.9576 17.4686 16.8502 18.5759 16.8502 19.942C16.8502 21.3081 17.9576 22.4155 19.3237 22.4155Z" fill="white"/>
</svg>
